# Blender v3.3.0 OBJ File: 'cristal.blend'
# www.blender.org
mtllib Stone5.mtl
o Stone5
v 0.000000 0.654959 0.023256
v -0.018183 0.654959 0.014500
v -0.022673 0.654959 -0.005175
v -0.010091 0.654959 -0.020953
v 0.010091 0.654959 -0.020953
v 0.022673 0.654959 -0.005175
v 0.018183 0.654959 0.014500
v 0.000000 0.000000 0.654959
v -0.512067 0.000000 0.408360
v -0.638538 0.000000 -0.145742
v -0.284176 0.000000 -0.590098
v 0.284176 0.000000 -0.590098
v 0.638538 0.000000 -0.145742
v 0.512067 0.000000 0.408360
v 0.000000 -0.654959 0.023256
v -0.018183 -0.654959 0.014500
v -0.022673 -0.654959 -0.005175
v -0.010091 -0.654959 -0.020953
v 0.010091 -0.654959 -0.020953
v 0.022673 -0.654959 -0.005175
v 0.018183 -0.654959 0.014500
vt 0.004219 0.525080
vt 0.345323 0.417333
vt 0.349881 0.423827
vt 0.132565 0.707967
vt 0.357341 0.426525
vt 0.342678 0.783941
vt 0.364998 0.424447
vt 0.558309 0.725433
vt 0.558309 0.101300
vt 0.364998 0.402286
vt 0.357341 0.400208
vt 0.342678 0.042792
vt 0.349881 0.402906
vt 0.132564 0.118766
vt 0.253080 0.761181
vt 0.287697 0.871190
vt 0.223271 0.966843
vt 0.345323 0.409400
vt 0.004219 0.301653
vt 0.045943 0.777883
vt 0.145489 0.719656
vt 0.108319 0.976112
vt 0.029400 0.892017
vt 0.440164 0.302735
vt 0.568509 0.119849
vt 0.785825 0.403988
vt 0.781268 0.410482
vt 0.778623 0.043874
vt 0.793286 0.401291
vt 0.994254 0.102383
vt 0.800943 0.403368
vt 0.994254 0.726516
vt 0.778623 0.785024
vt 0.793286 0.427607
vt 0.800943 0.425530
vt 0.568509 0.709049
vt 0.785825 0.424910
vt 0.667809 0.964934
vt 0.688340 0.769032
vt 0.725245 0.871926
vt 0.440164 0.526163
vt 0.781268 0.418416
vt 0.481388 0.901325
vt 0.492782 0.792608
vt 0.584885 0.733732
vt 0.559282 0.978016
vn -0.3275 0.6559 0.6801
vn -0.7359 0.6559 0.1680
vn -0.5901 0.6559 -0.4706
vn 0.0000 0.6559 -0.7548
vn 0.5901 0.6559 -0.4706
vn 0.0000 1.0000 -0.0000
vn 0.7359 0.6559 0.1680
vn 0.3275 0.6559 0.6801
vn -0.3275 -0.6559 0.6801
vn -0.7359 -0.6559 0.1680
vn -0.5901 -0.6559 -0.4706
vn 0.0000 -0.6559 -0.7548
vn 0.5901 -0.6559 -0.4706
vn 0.0000 -1.0000 -0.0000
vn 0.7359 -0.6559 0.1680
vn 0.3275 -0.6559 0.6801
g Stone5_Stone5_Stone5
usemtl Stone5
s 1
f 8/1/1 1/2/1 2/3/1 9/4/1
f 9/4/2 2/3/2 3/5/2 10/6/2
f 10/6/3 3/5/3 4/7/3 11/8/3
f 11/9/4 4/10/4 5/11/4 12/12/4
f 12/12/5 5/11/5 6/13/5 13/14/5
f 7/15/6 6/16/6 5/17/6
f 13/14/7 6/13/7 7/18/7 14/19/7
f 14/19/8 7/18/8 1/2/8 8/1/8
f 2/20/6 1/21/6 4/22/6 3/23/6
f 1/21/6 7/15/6 5/17/6 4/22/6
f 8/24/9 9/25/9 16/26/9 15/27/9
f 9/25/10 10/28/10 17/29/10 16/26/10
f 10/28/11 11/30/11 18/31/11 17/29/11
f 11/32/12 12/33/12 19/34/12 18/35/12
f 12/33/13 13/36/13 20/37/13 19/34/13
f 21/38/14 19/39/14 20/40/14
f 13/36/15 14/41/15 21/42/15 20/37/15
f 14/41/16 8/24/16 15/27/16 21/42/16
f 16/43/14 17/44/14 18/45/14 15/46/14
f 15/46/14 18/45/14 19/39/14 21/38/14
