# Blender v3.3.0 OBJ File: 'cristal.blend'
# www.blender.org
mtllib Stone3.mtl
o Stone3_Stone1.001
v 0.000000 0.419938 -0.054736
v 0.000000 -0.419938 -0.054736
v -0.199933 0.000010 -0.054736
v 0.000000 0.676509 -0.003848
v -0.322087 0.000017 -0.003847
v 0.000000 -0.676509 -0.003848
v 0.000000 0.419938 0.054736
v 0.000000 -0.419938 0.054736
v -0.199933 0.000010 0.054736
v 0.000000 0.676509 0.003847
v -0.322087 0.000017 0.003848
v 0.000000 -0.676509 0.003848
v 0.199933 0.000010 -0.054736
v 0.322087 0.000017 -0.003847
v 0.199933 0.000010 0.054736
v 0.322087 0.000017 0.003848
vt 0.888797 0.566759
vt 0.600217 0.788651
vt 0.603564 0.424641
vt 0.892151 0.202735
vt 0.959876 0.014814
vt 0.959845 0.022821
vt 0.501079 0.024332
vt 0.501110 0.016325
vt 0.113782 0.566884
vt 0.402927 0.789219
vt 0.497964 0.979961
vt 0.015379 0.615907
vt 0.110428 0.202169
vt 0.015390 0.011426
vt 0.505352 0.375712
vt 0.987005 0.012362
vt 0.505363 0.979025
vt 0.042313 0.025843
vt 0.042344 0.017836
vt 0.037281 0.006666
vt 0.500616 0.004352
vt 0.500703 0.012438
vt 0.037367 0.014752
vt 0.399566 0.424491
vt 0.497964 0.375458
vt 0.987005 0.615697
vt 0.963952 0.002038
vt 0.964038 0.010124
vn 0.0000 0.0000 1.0000
vn -0.9029 -0.4299 0.0000
vn -0.3783 -0.1801 -0.9080
vn -0.3783 0.1801 -0.9080
vn -0.3783 -0.1801 0.9080
vn -0.3783 0.1801 0.9080
vn -0.9029 0.4299 0.0000
vn 0.9029 -0.4299 0.0000
vn 0.3783 -0.1801 -0.9080
vn 0.3783 0.1801 -0.9080
vn 0.3783 -0.1801 0.9080
vn 0.3783 0.1801 0.9080
vn 0.9029 0.4299 0.0000
vn 0.0000 -0.0000 -1.0000
g Stone3_Stone1.001_Stone3
usemtl Stone3
s 1
f 15/1/1 7/2/1 9/3/1 8/4/1
f 6/5/2 12/6/2 11/7/2 5/8/2
f 3/9/3 2/10/3 6/11/3 5/12/3
f 1/13/4 3/9/4 5/12/4 4/14/4
f 9/3/5 11/15/5 12/16/5 8/4/5
f 7/2/6 10/17/6 11/15/6 9/3/6
f 5/8/7 11/7/7 10/18/7 4/19/7
f 6/20/8 14/21/8 16/22/8 12/23/8
f 13/24/9 14/25/9 6/11/9 2/10/9
f 1/13/10 4/14/10 14/25/10 13/24/10
f 15/1/11 8/4/11 12/16/11 16/26/11
f 7/2/12 15/1/12 16/26/12 10/17/12
f 14/21/13 4/27/13 10/28/13 16/22/13
f 1/13/14 13/24/14 2/10/14 3/9/14
