# Blender v3.3.0 OBJ File: 'cristal.blend'
# www.blender.org
mtllib Stone4.mtl
o Stone4
v 0.000000 0.460768 0.461116
v -0.399338 0.460768 0.230558
v -0.399338 0.460768 -0.230558
v 0.000000 0.460768 -0.461116
v 0.399338 0.460768 -0.230558
v 0.399338 0.460768 0.230558
v 0.000000 0.151091 0.635637
v -0.550478 0.151091 0.317818
v -0.550478 0.151091 -0.317818
v 0.000000 0.151091 -0.635637
v 0.550478 0.151091 -0.317818
v 0.550478 0.151091 0.317818
v 0.000000 -0.739747 0.034900
v -0.030224 -0.739747 0.017450
v -0.030224 -0.739747 -0.017450
v 0.000000 -0.739747 -0.034900
v 0.030224 -0.739747 -0.017450
v 0.030224 -0.739747 0.017450
vt 0.545324 0.863949
vt 0.494647 0.984046
vt 0.308709 0.843481
vt 0.410438 0.761978
vt 0.475306 0.529461
vt 0.345939 0.545447
vt 0.375014 0.314177
vt 0.496398 0.361688
vt 0.536606 0.687052
vt 0.430439 0.762682
vt 0.665521 0.796474
vt 0.608145 0.913519
vt 0.102198 0.380803
vt 0.005683 0.187338
vt 0.124972 0.007021
vt 0.340775 0.020169
vt 0.340341 0.608098
vt 0.212082 0.631362
vt 0.228056 0.398819
vt 0.351929 0.439403
vt 0.269464 0.809457
vt 0.192311 0.906377
vt 0.101594 0.675824
vt 0.224106 0.694180
vt 0.318001 0.393952
vt 0.437290 0.213635
vt 0.993114 0.900912
vt 0.745872 0.862492
vt 0.925061 0.479379
vt 0.938636 0.481489
vt 0.069800 0.888021
vt 0.024441 0.772744
vt 0.557899 0.216889
vt 0.745872 0.051752
vt 0.925061 0.434865
vt 0.914740 0.443932
vt 0.557899 0.697355
vt 0.487953 0.457122
vt 0.910900 0.457122
vt 0.914740 0.470312
vt 0.993114 0.013332
vt 0.938636 0.432756
vn -0.8987 0.4386 0.0000
vn -0.4493 0.4386 -0.7783
vn 0.4493 0.4386 -0.7783
vn 0.8987 0.4386 0.0000
vn 0.0000 1.0000 0.0000
vn 0.4493 0.4386 0.7783
vn 0.0000 -1.0000 0.0000
vn 0.4318 -0.5043 0.7478
vn 0.4318 -0.5043 -0.7478
vn -0.8635 -0.5043 0.0000
vn 0.8635 -0.5043 0.0000
vn -0.4318 -0.5043 -0.7478
vn -0.4318 -0.5043 0.7478
vn -0.4493 0.4386 0.7783
g Stone4_Stone4_Stone4
usemtl Stone4
s 1
f 3/1/1 9/2/1 8/3/1 2/4/1
f 4/5/2 10/6/2 9/7/2 3/8/2
f 5/9/3 11/10/3 10/6/3 4/5/3
f 6/11/4 12/12/4 11/10/4 5/9/4
f 1/13/5 6/14/5 5/15/5 4/16/5
f 1/17/6 7/18/6 12/19/6 6/20/6
f 18/21/7 13/22/7 16/23/7 17/24/7
f 2/25/5 1/13/5 4/16/5 3/26/5
f 12/27/8 7/28/8 13/29/8 18/30/8
f 13/22/7 14/31/7 15/32/7 16/23/7
f 10/33/9 11/34/9 17/35/9 16/36/9
f 8/37/10 9/38/10 15/39/10 14/40/10
f 11/34/11 12/41/11 18/42/11 17/35/11
f 9/38/12 10/33/12 16/36/12 15/39/12
f 7/28/13 8/37/13 14/40/13 13/29/13
f 2/4/14 8/3/14 7/18/14 1/17/14
